<svg xmlns="http://www.w3.org/2000/svg" width="47.5" height="47.5"><g fill="#fff"><path d="M45.1 33.2h-.6c.1-.3.1-.7.1-1V22.6v-.1c0-.9-.6-1.6-1.5-1.8-.3-.1-.7-.1-1-.1H35.5c-.5 0-1.1-.1-1.7.1V7.9c0-.4-.3-.7-.7-.7-.4 0-.7.3-.7.7V26c-.1-.1-.2-.2-.3-.2-.7-.5-1.5-.7-2.3-.7h-2.5v-3.8-.3-.1c-.8-2.2-1.6-4.4-2.4-6.7-.3-1-.7-1.9-1-2.9-.3-.8-.7-1.6-1.3-2.2-.8-.9-1.9-1.5-3-1.8-1-.2-2.2-.1-3.2-.1H9.1c-.4 0-.7.3-.7.7v12.6H5.7c-2.1 0-3.9 1.7-3.9 3.8V33c0 .8.2 1.7.7 2.3.7 1 1.8 1.5 3 1.6h1c.1.3.2.7.3 1 .8 1.8 2.8 2.6 4.6 2.3 1.6-.3 2.8-1.7 3.1-3.3h6.6c.1.3.2.7.3 1 .8 1.8 2.8 2.6 4.6 2.3 1.6-.3 2.8-1.7 3.1-3.3h1.1c1.3-.1 2.4-.8 3-1.9l.3-.6H45c.4 0 .7-.3.7-.7.1-.2-.3-.5-.6-.5zM9.8 14.7V8.5H18c.6 0 1 0 1.5.1.1 0 .3.1.4.1.1 0 .1 0 .2.1h.1c.3.1.5.3.7.4.2.1.3.2.5.4l.3.3s.1.1.1.2v.1l.1.1c.2.2.3.4.4.7l.2.6c0 .1 0 .1.1.2.9 2.5 1.8 5.1 2.8 7.6.2.6.4 1.2.7 1.8v3l-4.2-5.1c.3-.3.7-.5 1-.8.3-.2.2-.7 0-1-.3-.3-.7-.2-1 0-.5.4-.9.7-1.4 1.1 0 0-.1 0-.1.1l-1.5 1.2c-.3.2-.2.7 0 1 .3.3.7.2 1 0 .3-.2.6-.5.9-.7l4.2 5.1h-6.1v-.3-.8c0-.5-.2-1-.4-1.4-.3-.6-.8-1.2-1.5-1.6 0 0-.1 0-.1-.1-.2-.1-.3-.1-.5-.2-.7-.2-1.5-.2-2.3-.2v-5.2c0-.4-.3-.7-.7-.7-.4 0-.7.3-.7.7v5.2H9.8v-5.8zm3.4 21.6V36.9c0 .1-.1.3-.1.4 0 .1-.1.2-.1.2-.1.1-.1.2-.2.3 0-.1-.1.1-.1.1l-.1.1c-.2.2-.3.3-.6.5-.1.1-.2.1-.3.2h-.1c-.1 0-.1 0-.2.1-.1 0-.3.1-.4.1h-.7H10c-.1 0-.3-.1-.4-.1-.1 0-.2-.1-.2-.1-.4-.2-.8-.6-1-.9-.3-.4-.4-.9-.4-1.3v-.1-.1-.1-.1-.1c0-.1.1-.2.1-.3v-.1s.1-.1.1-.2v-.1c0-.1.1-.1.1-.2 0 0 0-.1.1-.1l.1-.1.1-.1.1-.1.2-.2s.1 0 .1-.1c-.2-.3 0-.4 0-.4h.2c.1 0 .2-.1.2-.1h.1s.1-.1.2-.1.1 0 .2-.1H11.4c.1 0 .2.1.2.1.1 0 .1.1.2.1l.1.1c.1 0 .1.1.2.2l.1.1.2.2.1.1c-.1-.1 0 .1 0 .1v.1s0 .1.1.1v.1c.1.1.1.2.1.3v.8c.5 0 .5.1.5.2zm14.6 0V36.9c0 .1-.1.3-.1.4 0 .1-.1.2-.1.2-.1.1-.1.2-.2.3 0-.1-.1.1-.1.1l-.1.1c-.2.2-.3.3-.6.5-.1.1-.2.1-.3.2h-.1c-.1 0-.1 0-.2.1-.1 0-.3.1-.4.1h-.7H24.6c-.1 0-.3-.1-.4-.1-.1 0-.2-.1-.2-.1-.4-.2-.8-.6-1-.9-.3-.4-.4-.9-.4-1.3v-.2-.1-.1-.1-.1c0-.1.1-.2.1-.3v-.1s.1-.1.1-.2v-.1c0-.1.1-.1.1-.2l.1-.1.1-.1.1-.1.1-.1.2-.2s.1 0 .1-.1c-.1 0 .1-.1.1-.1l.1-.1h.1c.1 0 .1-.1.2-.1 0 0 .1-.1.2-.1H26c.1 0 .1.1.2.1s.1.1.2.1l.1.1c.1 0 .1.1.2.1l.1.1.2.2.1.1c-.1-.1 0 .1 0 .1v.1s0 .1.1.1v.1c.1.1.1.2.2.3v.7c.4 0 .4.1.4.2zm4.7-3.7V33.5c0 .1-.1.3-.1.4 0 .1 0 .1-.1.2v.1c-.1.1-.1.2-.2.3 0 .1-.1.1-.1.2l-.1.1c-.2.3-.3.3-.5.5-.4.3-.9.4-1.3.4h-.8c-.1-.4-.2-.8-.4-1.2-.2-.5-.6-.9-1-1.3-.5-.4-1-.7-1.6-.8-.3-.1-.6-.1-1-.1-.3 0-.7 0-1 .1-1.1.3-2.1 1.1-2.7 2.1-.1.2-.2.3-.2.5-.1.2-.1.5-.2.7h-6.5c-.1-.5-.2-.9-.5-1.3-.2-.5-.6-.9-1-1.2-.5-.4-1.1-.7-1.6-.8-.3-.1-.6-.1-1-.1-.3 0-.7 0-1 .1-1.1.3-2.1 1.1-2.7 2.1-.1.1-.1.3-.2.4-.1.3-.2.5-.2.8H5.2c-.1 0-.3-.1-.4-.1-.1 0-.1-.1-.2-.1-.1-.1-.2-.1-.4-.2-.1-.2-.2-.3-.2-.3l-.1-.1-.1-.1-.1-.1c-.1-.1-.1-.2-.2-.3 0-.1-.1-.1-.1-.2v-.1c0-.1-.1-.2-.1-.4v-.2-.1-9.2-.2-.1c0-.1.1-.3.1-.4 0-.1 0-.1.1-.2s.1-.2.2-.3c.1-.2.2-.3.5-.5l.1-.1.1-.1c.1-.1.2-.1.3-.2l.1-.1h.1c.1 0 .3-.1.4-.1H15.4c.1 0 .2 0 .3.1h.2s.1.1.1 0h.1c.1 0 .2.1.2.1l.1.1h.1l.3.3.1.1.1.1c.1.1.1.2.2.3 0 0 0 .1.1.1l.1.2V25.6c0 .4.3.7.7.7h12.2c.1 0 .2 0 .3.1.5.1.8.3 1.2.7.4.4.7 1.1.7 1.7v3.8zm5.4-10.7h1.2v2.5c-.2-.1-.4-.2-.6-.2-.2 0-.4.1-.6.2v-2.5zm5.3 7.8v2.9c0 .2 0 .3-.2.5.1-.1 0 0-.1 0h-.1H34.4h-.1-.1-.1-.1l-.1-.1-.1-.1V22.7v-.1-.1l.1-.1.1-.1h2.5v3.6c0 .5.6.8 1 .6.3-.2.6-.3.9-.5.3.2.6.3.9.5.3.2.6.1.8-.1.1-.1.2-.3.2-.5v-3.6H42.6c.1 0 .1.1.1.1l.1.1c.1.1.1.1 0 0 0 0 0 .1.1.1v7.1z"/><path d="M7.9 25.1H6.5c-.4 0-.7.3-.7.7 0 .4.3.7.7.7h1.4c.4 0 .7-.3.7-.7 0-.4-.3-.7-.7-.7zM13.5 25.1h-1.4c-.4 0-.7.3-.7.7 0 .4.3.7.7.7h1.4c.4 0 .7-.3.7-.7 0-.4-.3-.7-.7-.7z"/></g></svg>