<?xml version="1.0" encoding="utf-8"?>
<!-- Generator: Adobe Illustrator 15.0.0, SVG Export Plug-In . SVG Version: 6.00 Build 0)  -->
<!DOCTYPE svg PUBLIC "-//W3C//DTD SVG 1.1//EN" "http://www.w3.org/Graphics/SVG/1.1/DTD/svg11.dtd">
<svg version="1.1" id="Layer_1" xmlns="http://www.w3.org/2000/svg" xmlns:xlink="http://www.w3.org/1999/xlink" x="0px" y="0px"
	 width="80px" height="80px" viewBox="0 0 80 80" enable-background="new 0 0 80 80" xml:space="preserve">
<path fill="#333333" d="M26.651,30.104c-0.966,0.798-1.519,1.979-1.519,3.222v3.759c0,0.844,0.675,1.519,1.519,1.519
	s1.519-0.675,1.519-1.519v-3.759c0-0.337,0.153-0.659,0.415-0.875c3.283-2.685,6.828-4.48,7.518-4.817
	c0.598-0.292,0.997-0.92,0.997-1.581v-5.293c0-0.506-0.261-0.982-0.675-1.258c-0.261-0.184-0.43-0.475-0.43-0.797V13.21
	c0-1.887,1.534-3.421,3.421-3.421h1.181c1.887,0,3.422,1.535,3.422,3.421v5.493c0,0.322-0.154,0.614-0.43,0.797
	c-0.43,0.276-0.676,0.752-0.676,1.258v5.293c0,0.675,0.385,1.289,0.982,1.581c0.676,0.337,4.234,2.133,7.52,4.817
	c0.26,0.215,0.412,0.537,0.412,0.875v3.759c0,0.844,0.676,1.519,1.52,1.519s1.52-0.675,1.52-1.519v-3.759
	c0-1.258-0.553-2.439-1.52-3.222c-2.885-2.363-5.953-4.082-7.395-4.833V21.45c0.705-0.736,1.104-1.718,1.104-2.762V13.21
	c0-3.56-2.898-6.459-6.459-6.459h-1.181c-3.56,0-6.459,2.899-6.459,6.459v5.493c0,1.043,0.398,2.025,1.104,2.761v3.806
	C32.604,26.022,29.536,27.741,26.651,30.104z"/>
<path fill="#333333" d="M76.086,73.248c0.844,0,1.52-0.676,1.52-1.518v-3.76c0-1.26-0.553-2.441-1.52-3.223
	c-2.885-2.363-5.953-4.082-7.395-4.834v-3.82c0.705-0.736,1.105-1.717,1.105-2.762V47.84c0-3.561-2.902-6.459-6.461-6.459h-1.182
	c-3.559,0-6.459,2.898-6.459,6.459v5.492c0,1.045,0.398,2.025,1.105,2.762v3.82c-1.443,0.752-4.512,2.471-7.396,4.834
	c-0.967,0.797-1.52,1.963-1.52,3.223v3.76c0,0.842,0.676,1.518,1.52,1.518s1.52-0.676,1.52-1.518v-3.76
	c0-0.338,0.154-0.66,0.416-0.877c3.281-2.699,6.826-4.494,7.516-4.816c0.6-0.291,0.982-0.92,0.982-1.58v-5.293
	c0-0.506-0.26-0.982-0.674-1.258c-0.262-0.184-0.432-0.477-0.432-0.799v-5.492c0-1.889,1.535-3.422,3.422-3.422h1.182
	c1.887,0,3.422,1.533,3.422,3.422v5.492c0,0.322-0.154,0.615-0.43,0.799c-0.43,0.275-0.676,0.752-0.676,1.258v5.293
	c0,0.676,0.385,1.289,0.982,1.58c0.676,0.338,4.234,2.133,7.518,4.816c0.262,0.217,0.416,0.539,0.416,0.877v3.76
	C74.568,72.572,75.258,73.248,76.086,73.248z"/>
<path fill="#333333" d="M30.595,64.748c-2.885-2.363-5.954-4.082-7.396-4.834v-3.82c0.706-0.736,1.104-1.717,1.104-2.762V47.84
	c0-3.561-2.9-6.459-6.459-6.459h-1.182c-3.559,0-6.459,2.898-6.459,6.459v5.492c0,1.045,0.399,2.025,1.105,2.762v3.82
	c-1.443,0.752-4.511,2.471-7.396,4.834c-0.967,0.797-1.519,1.963-1.519,3.223v3.76c0,0.842,0.675,1.518,1.519,1.518
	c0.844,0,1.519-0.676,1.519-1.518v-3.76c0-0.338,0.153-0.66,0.414-0.877c3.284-2.699,6.828-4.494,7.519-4.816
	c0.598-0.291,0.982-0.92,0.982-1.58v-5.293c0-0.506-0.261-0.982-0.675-1.258c-0.261-0.184-0.43-0.477-0.43-0.799v-5.492
	c0-1.889,1.535-3.422,3.421-3.422h1.182c1.887,0,3.421,1.533,3.421,3.422v5.492c0,0.322-0.153,0.615-0.43,0.799
	c-0.429,0.275-0.675,0.752-0.675,1.258v5.293c0,0.676,0.383,1.289,0.982,1.58c0.675,0.338,4.234,2.117,7.518,4.816
	c0.261,0.217,0.414,0.539,0.414,0.877v3.76c0,0.842,0.675,1.518,1.52,1.518c0.843,0,1.519-0.676,1.519-1.518v-3.76
	C32.114,66.711,31.561,65.529,30.595,64.748z"/>
<path fill="#EC161E" d="M48.639,55.68c0.244,0.139,0.506,0.199,0.75,0.199c0.521,0,1.045-0.275,1.32-0.768
	c0.414-0.721,0.168-1.656-0.553-2.07l-8.516-4.91v-9.834c0-0.844-0.675-1.52-1.519-1.52c-0.844,0-1.519,0.675-1.519,1.52v9.834
	l-8.516,4.926c-0.721,0.414-0.982,1.35-0.552,2.07c0.276,0.492,0.798,0.768,1.32,0.768c0.26,0,0.521-0.061,0.751-0.199l8.515-4.926
	L48.639,55.68z"/>
</svg>
