<?xml version="1.0" encoding="utf-8"?>
<!-- Generator: Adobe Illustrator 15.0.0, SVG Export Plug-In . SVG Version: 6.00 Build 0)  -->
<!DOCTYPE svg PUBLIC "-//W3C//DTD SVG 1.1//EN" "http://www.w3.org/Graphics/SVG/1.1/DTD/svg11.dtd">
<svg version="1.1" id="Layer_1" xmlns="http://www.w3.org/2000/svg" xmlns:xlink="http://www.w3.org/1999/xlink" x="0px" y="0px"
	 width="80px" height="80px" viewBox="0 0 80 80" enable-background="new 0 0 80 80" xml:space="preserve">
<path fill="#333333" d="M40,17.166c0.772,0,1.405-0.634,1.405-1.406V6.958l3.119,3.119c0.278,0.278,0.633,0.417,0.987,0.417
	c0.355,0,0.711-0.139,0.989-0.417c0.539-0.541,0.539-1.436,0-1.977l-5.513-5.512c-0.541-0.541-1.436-0.541-1.976,0l-5.513,5.512
	c-0.541,0.541-0.541,1.436,0,1.977c0.541,0.54,1.437,0.54,1.977,0l3.119-3.119v8.816C38.595,16.548,39.228,17.166,40,17.166z"/>
<path fill="#333333" d="M40,62.808c-0.772,0-1.405,0.634-1.405,1.405v8.817l-3.119-3.119c-0.54-0.541-1.436-0.541-1.977,0
	c-0.541,0.54-0.541,1.435,0,1.976l5.513,5.513c0.277,0.278,0.632,0.417,0.988,0.417s0.711-0.139,0.988-0.417l5.513-5.513
	c0.539-0.541,0.539-1.436,0-1.976c-0.54-0.541-1.436-0.541-1.977,0l-3.119,3.119v-8.817C41.405,63.426,40.772,62.808,40,62.808z"/>
<path fill="#333333" d="M17.178,39.987c0-0.772-0.633-1.405-1.405-1.405H6.972l3.119-3.119c0.541-0.541,0.541-1.436,0-1.977
	c-0.54-0.541-1.436-0.541-1.977,0l-5.512,5.512c-0.541,0.541-0.541,1.437,0,1.977l5.512,5.511c0.278,0.279,0.633,0.418,0.989,0.418
	c0.354,0,0.71-0.139,0.988-0.418c0.541-0.54,0.541-1.435,0-1.975l-3.119-3.119h8.817C16.561,41.393,17.178,40.759,17.178,39.987z"/>
<path fill="#333333" d="M71.885,33.486c-0.54-0.541-1.436-0.541-1.976,0c-0.541,0.541-0.541,1.436,0,1.977l3.119,3.119h-8.817
	c-0.771,0-1.405,0.633-1.405,1.405s0.634,1.406,1.405,1.406h8.817l-3.119,3.119c-0.541,0.54-0.541,1.435,0,1.975
	c0.277,0.279,0.633,0.418,0.989,0.418c0.354,0,0.709-0.139,0.986-0.418l5.513-5.511c0.541-0.541,0.541-1.436,0-1.977L71.885,33.486z
	"/>
<path fill="#333333" d="M12.855,14.247v7.797c0,0.772,0.633,1.406,1.405,1.406c0.772,0,1.405-0.633,1.405-1.406v-4.416l6.238,6.237
	c0.277,0.278,0.633,0.417,0.988,0.417s0.709-0.139,0.988-0.417c0.541-0.54,0.541-1.435,0-1.976l-6.238-6.238h4.416
	c0.772,0,1.405-0.634,1.405-1.405c0-0.772-0.633-1.405-1.405-1.405H14.26C13.488,12.841,12.855,13.474,12.855,14.247z"/>
<path fill="#333333" d="M56.553,65.727c0,0.771,0.633,1.404,1.404,1.404h7.798c0.771,0,1.405-0.633,1.405-1.404v-7.799
	c0-0.771-0.634-1.404-1.405-1.404c-0.772,0-1.405,0.633-1.405,1.404v4.417l-6.237-6.237c-0.541-0.542-1.437-0.542-1.977,0
	c-0.539,0.54-0.539,1.436,0,1.975l6.239,6.239h-4.418C57.186,64.337,56.553,64.954,56.553,65.727z"/>
<path fill="#333333" d="M23.864,56.122c-0.541-0.54-1.436-0.54-1.976,0l-6.239,6.238v-4.416c0-0.771-0.633-1.405-1.405-1.405
	c-0.772,0-1.405,0.634-1.405,1.405v7.799c0,0.771,0.633,1.404,1.405,1.404h7.797c0.772,0,1.406-0.633,1.406-1.404
	c0-0.772-0.634-1.406-1.406-1.406h-4.416l6.238-6.238C24.405,57.558,24.405,56.663,23.864,56.122z"/>
<path fill="#333333" d="M65.741,23.434c0.771,0,1.404-0.633,1.404-1.405v-7.783c0-0.772-0.633-1.405-1.404-1.405h-7.799
	c-0.771,0-1.405,0.633-1.405,1.405c0,0.771,0.634,1.405,1.405,1.405h4.416L56.12,21.89c-0.54,0.541-0.54,1.436,0,1.976
	c0.279,0.278,0.633,0.417,0.988,0.417c0.356,0,0.71-0.139,0.988-0.417l6.238-6.237v4.416C64.35,22.801,64.969,23.434,65.741,23.434z
	"/>
<path fill="#EC161E" d="M40,21.257c-2.455,0-4.864,0.478-7.149,1.42c-9.542,3.953-14.082,14.932-10.145,24.458
	C25.609,54.16,32.403,58.7,40.015,58.7c2.456,0,4.865-0.479,7.149-1.437c9.543-3.952,14.082-14.93,10.145-24.457
	C54.391,25.796,47.597,21.257,40,21.257z M24.96,45.206c-1.22-3.49-1.127-7.165,0.016-10.439h4.354
	c-0.324,1.698-0.495,3.459-0.495,5.188c0,1.621,0.217,3.427,0.618,5.25H24.96z M31.631,39.956c0-1.775,0.201-3.536,0.54-5.188h6.423
	v10.439h-6.284C31.878,43.446,31.631,41.64,31.631,39.956z M41.405,24.36c2.347,0.818,4.509,3.767,5.837,7.613h-5.837V24.36
	L41.405,24.36z M38.595,24.422v7.535h-5.651C34.24,28.221,36.325,25.333,38.595,24.422z M38.595,48.001v7.441
	c-2.162-0.973-4.138-3.938-5.435-7.441H38.595z M41.405,55.521v-7.52h5.621C45.699,51.613,43.629,54.64,41.405,55.521z
	 M41.405,45.206V34.767h6.593c0.355,1.652,0.541,3.413,0.541,5.188c0,1.684-0.247,3.491-0.681,5.25H41.405z M50.854,34.767h4.186
	c1.219,3.49,1.127,7.165-0.017,10.439h-4.308c0.402-1.823,0.618-3.63,0.618-5.25C51.349,38.21,51.178,36.465,50.854,34.767z
	 M53.758,31.973h-3.582c-0.495-1.637-1.128-3.182-1.884-4.571c-0.31-0.556-0.648-1.081-0.989-1.575
	C49.96,27.186,52.214,29.301,53.758,31.973z M32.958,25.704c-0.37,0.525-0.725,1.081-1.065,1.698
	c-0.772,1.375-1.405,2.934-1.884,4.571h-3.752C27.787,29.333,30.071,27.125,32.958,25.704z M26.242,48.001h3.984
	c0.788,2.393,1.884,4.679,3.228,6.516C30.473,53.173,27.925,50.918,26.242,48.001z M46.825,54.378
	c1.313-1.808,2.362-4.047,3.135-6.377h3.781C52.184,50.702,49.82,52.957,46.825,54.378z"/>
</svg>
