<?xml version="1.0" encoding="utf-8"?>
<!-- Generator: Adobe Illustrator 15.0.0, SVG Export Plug-In . SVG Version: 6.00 Build 0)  -->
<!DOCTYPE svg PUBLIC "-//W3C//DTD SVG 1.1//EN" "http://www.w3.org/Graphics/SVG/1.1/DTD/svg11.dtd">
<svg version="1.1" id="Layer_1" xmlns="http://www.w3.org/2000/svg" xmlns:xlink="http://www.w3.org/1999/xlink" x="0px" y="0px"
	 width="80px" height="80px" viewBox="0 0 80 80" enable-background="new 0 0 80 80" xml:space="preserve">
<path fill="#EC161E" d="M33.103,34.582c0,4.079,3.319,7.397,7.397,7.397c2.446,0,4.438,1.992,4.438,4.438s-1.992,4.438-4.438,4.438
	c-2.447,0-4.438-1.992-4.438-4.438c0-0.817-0.663-1.479-1.479-1.479s-1.479,0.662-1.479,1.479c0,3.573,2.545,6.562,5.918,7.249
	v3.107c0,0.817,0.663,1.479,1.479,1.479c0.817,0,1.479-0.662,1.479-1.479v-3.107c3.372-0.688,5.918-3.676,5.918-7.249
	c0-4.079-3.318-7.397-7.397-7.397c-2.447,0-4.438-1.991-4.438-4.438s1.991-4.438,4.438-4.438c2.446,0,4.438,1.991,4.438,4.438
	c0,0.817,0.662,1.479,1.479,1.479s1.479-0.663,1.479-1.479c0-3.573-2.546-6.561-5.918-7.249v-3.108c0-0.817-0.662-1.479-1.479-1.479
	c-0.817,0-1.479,0.663-1.479,1.479v3.108C35.648,28.021,33.103,31.009,33.103,34.582z"/>
<path fill="#333333" d="M40.5,2.625C20.101,2.625,2.625,20.101,2.625,40.5c0,20.398,17.476,37.875,37.875,37.875
	c20.395,0,37.875-17.473,37.875-37.875C78.375,20.136,60.934,2.625,40.5,2.625z M40.5,75.416C21.9,75.416,5.584,59.1,5.584,40.5
	C5.584,21.9,21.9,5.584,40.5,5.584c18.6,0,34.916,16.316,34.916,34.916C75.416,59.1,59.1,75.416,40.5,75.416z"/>
<path fill="#EC161E" d="M46.734,12.237c-0.795-0.189-1.593,0.302-1.781,1.097c-0.188,0.795,0.304,1.593,1.098,1.782
	C57.73,17.889,66.539,28.802,66.539,40.5c0,13.871-12.168,26.039-26.039,26.039S14.461,54.371,14.461,40.5
	c0-11.698,8.808-22.61,20.488-25.384c0.795-0.189,1.287-0.986,1.098-1.782c-0.189-0.795-0.986-1.287-1.781-1.097
	C21.401,15.292,11.502,27.316,11.502,40.5c0,15.416,13.478,28.998,28.998,28.998c15.416,0,28.998-13.479,28.998-28.998
	C69.498,27.328,59.609,15.294,46.734,12.237z"/>
<circle fill="#EC161E" cx="40.5" cy="13.129" r="1.479"/>
</svg>
