<svg xmlns="http://www.w3.org/2000/svg" width="50" height="50"><g fill="#fff"><path d="M45.9 24.4c-.1-.1-.2-.3-.3-.4 0 0-.1 0-.1-.1-1.5-.5-3.1-1-4.6-1.5-.2-2.1-.5-4.2-.7-6.3-.3-2.4-.5-4.7-.8-7.1 0-.2-.1-.4-.3-.6-.1-.1-.3-.2-.4-.2H27.9V2.5c0-.4-.3-.7-.7-.7h-4.4c-.4 0-.7.3-.7.7v5.8H11.4c-.4 0-.7.3-.7.7-.2 2.3-.5 4.6-.7 6.8-.2 2.2-.5 4.4-.7 6.6l-4.5 1.5c-.1 0-.1 0-.2.1-.5.2-.6.6-.4 1.1.7 1.5 1.5 3 2.2 4.5.8 2.1 1.7 4.2 2.5 6.2.8 2.1 1.7 4.2 2.5 6.2-.2 0-.4 0-.5.1-.8.3-1.4.3-2.1.3h-.5-.4c-.3-.1-.6-.1-.9-.2-.1 0-.2-.1-.3-.1 0 0-.1 0-.1-.1-.1 0-.1-.1-.2-.1-.2-.1-.4-.2-.5-.3-.1-.1-.2-.1-.3-.2h-.1l.1.1h-.1c-.1-.1-.1-.1 0 0-.3-.2-.7-.2-1 0-.3.3-.3.8 0 1C5.8 43.5 7.4 44 9 44c1.5 0 3-.5 4.2-1.4.2-.1.4-.3.6-.4.4-.2.8-.4 1.3-.6.1 0 .1 0 .2-.1.2 0 .3-.1.5-.1H17.7c.5.1.9.2 1.4.4 0 0 .1 0 .1.1.1 0 .2.1.2.1.1.1.3.2.4.2.1.1.3.2.4.3.1.1.1.1.2.1.2.1.3.2.5.3.9.6 2 .9 3.1 1h.9c1.4 0 2.7-.5 3.8-1.3.7-.4 1.3-.8 2-1.1.3-.1.6-.2.9-.2h.2H33.3c.5.1 1 .2 1.4.4 0 0 .1 0 .1.1.1 0 .1 0 .2.1s.3.1.4.2c.2.1.3.2.5.3.1.1.3.2.1 0 .2.2.4.3.7.5.9.6 2 .9 3 1 1.8.2 3.7-.3 5.2-1.4.3-.2.5-.6.3-1-.2-.3-.7-.5-1-.3-.6.4-1.3.8-2 1-.3.1-.6.2-.9.2H39.9c-.3 0-.5-.1-.8-.2-.2-.1-.4-.1-.6-.2.8-1.9 1.6-3.9 2.3-5.8.9-2.2 1.8-4.4 2.7-6.7v-.1c.7-1.5 1.4-2.9 2.2-4.4 0 0 .1-.1.1-.2.2-.1.2-.3.1-.4zM23.5 3.2h2.9v5h-2.9v-5zM11.3 16.1c.2-2.1.5-4.3.7-6.4H38c.2 2 .4 4.1.7 6.1.2 2 .4 4.1.7 6.1-2.8-.9-5.6-1.8-8.4-2.8-1.9-.6-3.8-1.2-5.6-1.9-.2-.1-.5 0-.7.1-.3.1-.5.2-.8.2-1.1.4-2.2.7-3.3 1.1-3.2 1-6.3 2.1-9.5 3.1l-.3.1c.1-1.8.3-3.7.5-5.7zm13 13.3v13h-.1c-.2 0-.5-.1-.7-.2-.2-.1-.4-.1-.6-.2l-.2-.1c-.1 0-.2-.1-.2-.1-.3-.1-.5-.3-.8-.4-.1 0-.1-.1-.2-.1-.1-.1-.3-.2-.4-.3-.7-.4-1.5-.8-2.2-1-.9-.2-1.8-.3-2.7-.2h-.1c-.2 0-.4.1-.6.1-.6.1-1.2.4-1.8.7-.3.1-.6.3-.8.5-.1 0-.1.1-.2.1-.7-1.8-1.5-3.7-2.2-5.5-.8-2-1.6-4.1-2.5-6.1 1.6-.5 3.2-1 4.7-1.4 3.1-1 6.3-1.9 9.4-2.9.7-.2 1.5-.5 2.2-.7v4.8zm15.5 5.9c-.8 2-1.6 4-2.4 5.9h-.1.1c-.2-.1-.3-.2-.5-.3-.7-.4-1.5-.8-2.3-1-.8-.2-1.6-.2-2.4-.2-.6.1-1.1.2-1.7.4-.1 0-.1 0-.2.1-.6.2-1.2.5-1.7.9-.5.3-.9.6-1.5.8l-.9.3c-.2 0-.3.1-.5.1h-.2V24.6c1.5.5 3.1.9 4.6 1.4 3.1 1 6.3 1.9 9.4 2.9.8.2 1.6.5 2.3.7-.5 1.9-1.2 3.8-2 5.7zm2.9-7c-1.6-.5-3.3-1-4.9-1.5-3.1-1-6.3-1.9-9.4-2.9-.9-.3-1.9-.6-2.8-.9-.1 0-.2-.1-.3-.1h-.2-.1-.1c-.2.1-.3.1-.5.2-2.5.8-5.1 1.6-7.6 2.3-2.9.9-5.7 1.8-8.6 2.6-.3.1-.5.2-.8.2-.5-1.1-1-2.1-1.6-3.2 1.4-.5 2.8-.9 4.2-1.4h.1c2-.7 4.1-1.3 6.1-2l8.4-2.7c.2-.1.4-.1.5-.2 2 .6 3.9 1.3 5.9 1.9 2.8.9 5.6 1.8 8.3 2.7.2.1.5.2.7.2 1.4.5 2.8.9 4.3 1.4-.6 1.2-1.1 2.3-1.6 3.4zM38.1 46.1c-.3-.1-.5-.3-.7-.5l-.1-.1c-.1-.1-.3-.2-.5-.3-.7-.5-1.6-.8-2.4-.9-1.3-.3-2.6-.2-3.9.3-.8.3-1.5.7-2.2 1.2-.6.4-1.2.7-2 .9-.2 0-.3.1-.5.1h-.2H24c-.3 0-.5-.1-.8-.2-.2-.1-.4-.1-.6-.2 0 0-.1 0-.1-.1-.1 0-.2-.1-.3-.1-.2-.1-.5-.3-.7-.4 0 0-.1 0-.1-.1l-.1-.1c-.1-.1-.3-.2-.4-.3-.7-.4-1.5-.8-2.4-1-1.1-.2-2.1-.2-3.2 0-.6.1-1.2.4-1.8.7-.6.3-1.1.7-1.7 1.1-.3.2-.5.7-.3 1 .2.3.6.5 1 .3.7-.4 1.3-.9 2.1-1.2.2-.1.6-.2.9-.3.2 0 .3-.1.5-.1H17.9c.5.1.9.2 1.4.4 0 0 .1 0 .1.1.1 0 .2.1.2.1.1.1.3.2.4.2.1.1.3.2.4.3.1.1.1.1.2.1.2.2.4.3.7.4.9.5 1.9.8 2.9.9 1.4.2 2.8-.2 4-.8.7-.4 1.4-.9 2.1-1.2l.9-.3c.2 0 .3-.1.5-.1H33.6c.5.1 1 .2 1.4.4 0 0 .1 0 .1.1.1 0 .1 0 .2.1s.3.1.4.2c.2.1.3.2.5.3.1.1.3.2.1 0 .3.2.6.4 1 .6.4.2.8.1 1-.3.3-.5.2-1-.2-1.2z"/><path d="M16 14.8c.5 0 1-.4 1.1-.9v-.3-.2c-.1-.5-.5-.9-1.1-.9-.6 0-1.1.5-1.1 1.1 0 .7.5 1.2 1.1 1.2zM21.9 14.8c.5 0 1-.4 1.1-.9v-.3-.2c-.1-.5-.5-.9-1.1-.9-.6 0-1.1.5-1.1 1.1 0 .7.6 1.2 1.1 1.2zM27.9 14.8c.5 0 1-.4 1.1-.9v-.3-.2c-.1-.5-.5-.9-1.1-.9-.6 0-1.1.5-1.1 1.1-.1.7.5 1.2 1.1 1.2zM33.8 14.8c.5 0 1-.4 1.1-.9v-.3-.2c-.1-.5-.5-.9-1.1-.9-.6 0-1.1.5-1.1 1.1-.1.7.5 1.2 1.1 1.2z"/></g></svg>