<svg xmlns="http://www.w3.org/2000/svg" width="54.6" height="54.6"><g fill="#fff"><path d="M52.3 32.9c-.1 0-.1-.1 0 0-.5-1.3-.9-2.4-1.3-3.6-.3-.7-.5-1.4-.8-2.1-.3-.7-.5-1.4-1-1.9-.7-.9-1.9-1.3-3-1.3h-6.9v-3.3c0-1.5-1.2-2.7-2.7-2.7H25.8c-.5-2.1-1.6-4-3.2-5.5-2.3-2.2-5.4-3.3-8.6-3-2.6.2-5 1.3-6.9 3-1.8 1.7-3.1 4-3.4 6.5-.5 3.2.4 6.4 2.4 8.9 1 1.3 2.3 2.3 3.7 3V40c0 .8.2 1.6.8 2.2.5.5 1.2.7 1.9.7h2.1c.2 1.1.9 2 1.8 2.7 1.2.8 2.9.8 4.1.1 1.1-.6 1.8-1.6 2-2.8H41c.2 1.1.9 2 1.8 2.7 1.2.8 2.9.8 4.1.1 1.1-.6 1.8-1.6 2-2.8.6 0 1.2 0 1.8-.3 1-.4 1.6-1.5 1.6-2.6v-6.8-.3zM8.4 28c-2.2-1.9-3.5-4.8-3.4-7.8 0-.3 0-.6.1-.9v-.1-.2c0-.2.1-.3.1-.5.1-.6.3-1.1.5-1.7l.1-.1c0-.1.1-.1.1-.2.1-.1.1-.3.2-.4.1-.3.3-.5.5-.8.1-.2.3-.4.5-.7l.1-.1c0-.1.1-.1.1-.2.1-.1.2-.3.3-.4l.6-.6.3-.3h.1l.1-.1c-.1 0-.1 0 0 0 .5-.4 1-.7 1.5-1 .6-.3.9-.4 1.6-.6.3-.1.6-.2.9-.2.1 0 .3-.1.4-.1h.4c2.8-.3 5.6.5 7.7 2.4 2.1 1.8 3.2 4.4 3.3 7.2v.5c0 .5-.1.9-.1 1.4 0 .2-.1.3-.1.5 0 .1-.1.2-.1.3V23.6c-.1.2-.1.4-.2.6 0 .1-.1.1-.1.2v.2c0 .1-.1.2-.1.2 0 .1-.1.1-.1.2v.4l-.3.6c-.1.1-.1.2-.2.3-.2.3-.2.3-.5.6 0 .1-.1.1-.1.2l-.2.2-.6.6-.3.3c-.1 0-.1.1-.2.1l-.1.1c-.5.4-1 .7-1.5.9-.1 0-.2.1-.2.1-.8.4-1.7.6-2.6.8h-.1-1.1-.1-1.3c-.6-.1-1.1-.2-1.6-.3-2-.3-3.3-1-4.3-1.9zm12.2 15.6s0 .1 0 0c-.1.1-.1.1 0 0-.1.1-.1.2-.2.2l-.3.3-.1.1c-.1 0-.1.1-.2.1s-.1.1-.2.1h-.1-.1c-.1.1-.3.1-.4.1h-.8-.1c-.1 0-.2 0-.3-.1-.1 0-.1 0-.2-.1h-.1c-.1-.1-.3-.1-.4-.2-.1 0-.1-.1-.2-.1l-.1-.1c-.1-.1-.2-.2-.3-.4 0-.1-.1-.1-.1-.2-.1-.1-.1-.2-.2-.4v-.1c0-.1 0-.1-.1-.2v-.2-.1-.1-.2-.2-.1c0-.1.1-.3.1-.4 0 0 0-.1.1-.1 0 0 0-.1.1-.1 0-.1.1-.1.1-.2 0 0 0-.1.1-.1 0 0 0-.1.1-.1v-.1l.2-.2.2-.2c.2-.1.3-.2.5-.3h.1s.1 0 .2-.1H19c.1 0 .3.1.4.1-.1 0 .1.1.2.1s.2.1.2.1l.2.1c.1 0 .1.1.2.1l.1.1.1.1v.1s0 .1.1.1c0 0 0 .1.1.1.1.1.1.2.2.3 0-.1.1.1.1.2s.1.2.1.3v.5c.1.6-.1 1-.4 1.5zm17.1-18.9v16.7H22.4c-.2-1.1-.9-2-1.8-2.6-.5-.3-1.1-.5-1.7-.6h-.4c-.7 0-1.3.2-1.8.4 0 0-.1 0-.1.1-1 .6-1.7 1.6-2 2.7h-2.7s-.2-.1-.1 0c0 0-.1 0-.1-.1 0 0-.1 0-.1-.1.1.1.1 0 0 0s-.1-.1-.2-.1l-.1-.1-.1-.1s0-.1-.1-.1v-.2-.1-8.9c.1 0 .2.1.3.1.8.2 1.6.4 2.5.5 2.6.2 5.3-.6 7.4-2.1.6-.4 1.1-.8 1.5-1.3.6-.6 1.1-1.3 1.5-2 .4-.7.8-1.5 1.1-2.3.1-.2.1-.3.2-.5.3-1 .4-2.1.4-3.2 0-.4 0-.8-.1-1.2h10.6c.6 0 1.1.5 1.2 1.2v3.9zM47 43.6s0 .1 0 0c0 .1 0 .1 0 0-.1.1-.1.2-.2.2l-.3.3-.1.1c-.1 0-.1.1-.2.1s-.1.1-.2.1h-.1-.1c-.1.1-.3.1-.4.1h-.8-.1c-.1 0-.2 0-.3-.1-.1 0-.1 0-.2-.1h-.1c-.1-.1-.3-.1-.4-.2-.1 0-.1-.1-.2-.1l-.1-.1c-.1-.1-.2-.2-.3-.4 0-.1-.1-.1-.1-.2-.1-.1-.1-.2-.2-.4v-.1c0-.1 0-.1-.1-.2v-.2-.1-.1-.2-.2-.1-.1c0-.1.1-.3.1-.4v-.1s0-.1.1-.1c0-.1.1-.1.1-.2l.1-.1s0-.1.1-.1l.2-.2.2-.2c.1-.1.3-.2.5-.3 0 0 .1 0 .1-.1l.2-.1h.1c.1 0 .1 0 .2-.1H45.4c.2 0 .3.1.4.1-.1 0 .1.1.2.1s.2.1.2.1l.2.1.1.1.2.2v.2c0 .1.1.1.1.2s.1.2.1.2c0-.1.1.2.1.2 0 .1.1.2.1.3v.6c.4.7.3 1.1-.1 1.6zm3.8-6.8V40.5c0 .1-.1.2-.1.3 0-.1-.1.1-.1.1s0 .1-.1.1l-.1.1-.1.1c-.1 0-.1.1-.2.1s-.1 0 0 0H50h-.2-.7c-.2-1.1-.9-2-1.9-2.6-.5-.3-1.1-.5-1.7-.6h-.3c-.6 0-1.3.1-1.8.4 0 0-.1 0-.1.1-1 .6-1.7 1.6-2 2.7h-1.8V25.5h7.4c.2 0 .3.1.5.1 0 0 .2.1.1.1.1 0 .1.1.2.1.1.1.2.1.3.2l.1.1c.1 0 .1.1.2.1.1.1.1.1.1.2l.1.1v.1c.1.1.2.2.2.4 0 .1.1.1.1.2-.1-.1 0 .1 0 .1v.1c.1.2.1.4.2.6.6 1.5 1.1 3.1 1.7 4.6.1.3.2.5.3.8v3.4z"/><path d="M33.4 27.3h-5.1c-.4 0-.8.3-.8.8 0 .4.3.8.8.8h5.1c.4 0 .8-.3.8-.8s-.3-.8-.8-.8zM33.4 32.3H18.7c-.4 0-.8.3-.8.8 0 .4.3.8.8.8h14.7c.4 0 .8-.3.8-.8 0-.4-.3-.8-.8-.8zM15.5 22.2c1.2 1 2.5 2 3.7 3.1.3.3.8.3 1.1 0 .3-.3.3-.8 0-1.1-1.6-1.3-3.2-2.6-4.7-3.9v-4.7c0-.4-.3-.8-.8-.8-.4 0-.8.3-.8.8v4.1c0 .4-.1 1.2.3 1.5.3.3.8.7 1.2 1z"/></g></svg>