<?xml version="1.0" encoding="utf-8"?>
<!-- Generator: Adobe Illustrator 15.0.0, SVG Export Plug-In . SVG Version: 6.00 Build 0)  -->
<!DOCTYPE svg PUBLIC "-//W3C//DTD SVG 1.1//EN" "http://www.w3.org/Graphics/SVG/1.1/DTD/svg11.dtd">
<svg version="1.1" id="Layer_1" xmlns="http://www.w3.org/2000/svg" xmlns:xlink="http://www.w3.org/1999/xlink" x="0px" y="0px"
	 width="80px" height="80px" viewBox="0 0 80 80" enable-background="new 0 0 80 80" xml:space="preserve">
<path fill="#EC161E" d="M63.164,52.225c-1.817,0-3.544,0.712-4.847,2c-1.303,1.303-2.029,2.999-2.029,4.817
	c0,1.816,0.712,3.515,2.029,4.816c1.317,1.288,3.029,1.999,4.847,1.999c3.728,0,6.757-3.06,6.757-6.815
	C69.921,55.284,66.892,52.225,63.164,52.225z M63.164,62.829c-2.09,0-3.847-1.728-3.847-3.787c0-2.061,1.757-3.788,3.847-3.788
	c2.061,0,3.728,1.697,3.728,3.788C66.892,61.132,65.225,62.829,63.164,62.829z M64.922,29.518c-0.273-0.257-0.637-0.394-1.014-0.394
	h-7.772c-0.833,0-1.515,0.682-1.515,1.515v12.422c0,0.832,0.682,1.514,1.515,1.514h12.331c0.833,0,1.515-0.682,1.515-1.514v-8.317
	c0-0.424-0.183-0.833-0.5-1.121L64.922,29.518z M66.951,41.545h-9.3v-9.407h5.664l3.636,3.271V41.545z M26.172,52.225
	c-1.817,0-3.544,0.712-4.848,2c-1.302,1.303-2.03,2.999-2.03,4.817c0,1.816,0.712,3.515,2.03,4.816
	c1.318,1.288,3.03,1.999,4.848,1.999c3.727,0,6.757-3.06,6.757-6.815C32.929,55.284,29.899,52.225,26.172,52.225z M26.172,62.829
	c-2.09,0-3.848-1.728-3.848-3.787c0-2.061,1.757-3.788,3.848-3.788c2.06,0,3.727,1.697,3.727,3.788
	C29.899,61.132,28.232,62.829,26.172,62.829z M16.069,54.089h-3.045v-4.03c0-0.834-0.682-1.515-1.515-1.515
	c-0.833,0-1.515,0.681-1.515,1.515v5.544c0,0.833,0.682,1.515,1.515,1.515h4.56c0.833,0,1.515-0.682,1.515-1.515
	S16.902,54.089,16.069,54.089z M76.178,31.442L76.178,31.442l-10.846-8.983c-0.273-0.227-0.606-0.349-0.971-0.349H51.605v-5.454
	c0-0.833-0.681-1.515-1.514-1.515H11.509c-0.833,0-1.515,0.682-1.515,1.515v11.089c0,0.833,0.682,1.515,1.515,1.515
	c0.833,0,1.515-0.682,1.515-1.515v-9.574h35.568v35.917H36.17c-0.833,0-1.515,0.681-1.515,1.514s0.681,1.515,1.515,1.515h18.496
	c0.834,0,1.516-0.682,1.516-1.515s-0.682-1.514-1.516-1.514h-3.044V25.14h12.209l9.877,8.18l-0.105,20.738h-1.576
	c-0.833,0-1.516,0.682-1.516,1.516c0,0.832,0.683,1.515,1.516,1.515h3.075c0.833,0,1.515-0.667,1.515-1.501l0.121-22.964
	C76.724,32.168,76.525,31.729,76.178,31.442z"/>
<path fill="#333333" d="M29.864,37.9c0,0.895-0.7,1.621-1.563,1.621H9.41c-0.864,0-1.564-0.727-1.564-1.621l0,0
	c0-0.896,0.7-1.623,1.564-1.623h18.891C29.164,36.277,29.864,37.004,29.864,37.9L29.864,37.9z"/>
<path fill="#333333" d="M33.206,32.405c0,0.88-0.689,1.595-1.539,1.595H13.076c-0.85,0-1.539-0.715-1.539-1.595l0,0
	c0-0.881,0.689-1.597,1.539-1.597h18.592C32.517,30.808,33.206,31.523,33.206,32.405L33.206,32.405z"/>
<path fill="#333333" d="M25.447,43.248c0,0.895-0.7,1.621-1.563,1.621H4.993c-0.864,0-1.564-0.727-1.564-1.621l0,0
	c0-0.896,0.7-1.623,1.564-1.623h18.891C24.747,41.625,25.447,42.353,25.447,43.248L25.447,43.248z"/>
</svg>
