<?xml version="1.0" encoding="iso-8859-1"?>
<!-- Generator: Adobe Illustrator 19.0.0, SVG Export Plug-In . SVG Version: 6.00 Build 0)  -->
<svg xmlns="http://www.w3.org/2000/svg" xmlns:xlink="http://www.w3.org/1999/xlink" version="1.1" id="Capa_1" x="0px" y="0px" viewBox="0 0 472.235 472.235" style="enable-background:new 0 0 472.235 472.235;" xml:space="preserve" width="512px" height="512px">
<g>
	<g>
		<path d="M402.994,147.887l-22.859-38.099V64.004c-0.001-3.299-2.027-6.258-5.102-7.453l-144-56c-1.862-0.734-3.934-0.734-5.797,0    l-144,56c-4.116,1.598-6.158,6.23-4.56,10.346c0.812,2.093,2.467,3.747,4.56,4.56l74.898,29.127v68.732    C77.221,209.08,45.485,305.287,85.25,384.2c39.765,78.913,135.972,110.649,214.885,70.885S410.783,319.113,371.019,240.2    c-15.425-30.611-40.273-55.459-70.885-70.885v-68.732l64-24.889v34.093l-22.859,38.099c-2.274,3.787-1.048,8.701,2.739,10.976    c1.244,0.747,2.669,1.142,4.12,1.142h48c4.418,0.001,8-3.579,8.001-7.997C404.136,150.556,403.741,149.131,402.994,147.887z     M184.515,174.799L184.515,174.799c-11.662,14.628-20.468,31.32-25.957,49.205h-44.151    C132.261,200.889,156.706,183.732,184.515,174.799z M103.619,240.004h50.209c-5.143,20.959-7.947,42.423-8.36,64H84.54    C85.752,281.462,92.291,259.529,103.619,240.004z M84.54,320.004h60.929c0.413,21.577,3.217,43.041,8.36,64h-50.209    C92.291,364.478,85.752,342.545,84.54,320.004z M114.407,400.004h44.151c5.489,17.885,14.295,34.576,25.958,49.205    C156.707,440.276,132.261,423.119,114.407,400.004z M220.134,455.107c-17.854-4.223-33.803-25.143-44.58-55.104h44.58V455.107z     M220.134,384.004h-49.568c-5.547-20.9-8.603-42.382-9.104-64h58.672V384.004z M220.134,304.004h-58.672    c0.501-21.618,3.557-43.1,9.104-64h49.568V304.004z M220.134,224.004h-44.58c10.777-29.961,26.725-50.881,44.58-55.104V224.004z     M172.134,162.316v-55.51l53.102,20.65c1.863,0.729,3.933,0.729,5.797,0l53.102-20.65v55.51    C248.067,148.566,208.202,148.566,172.134,162.316z M236.134,304.004v-64h46.83c5.495,20.907,8.513,42.388,8.993,64H236.134z     M291.957,320.004c-0.48,21.612-3.498,43.093-8.993,64h-46.83v-64H291.957z M236.134,224.004v-54.256    c16.863,5.725,31.669,25.933,41.819,54.256H236.134z M236.134,454.26v-54.256h41.819    C267.803,428.328,252.998,448.535,236.134,454.26z M268.215,450.213L268.215,450.213c12.137-14.816,21.237-31.877,26.78-50.209    h46.867C323.229,424.095,297.449,441.671,268.215,450.213z M352.65,384.004h-52.982c5.101-20.965,7.88-42.427,8.286-64h63.776    C370.517,342.545,363.978,364.478,352.65,384.004z M371.729,304.004h-63.776c-0.406-21.573-3.185-43.035-8.286-64h52.982    C363.978,259.529,370.517,281.462,371.729,304.004z M341.862,224.004h-46.867c-5.543-18.332-14.643-35.393-26.78-50.209    C297.449,182.337,323.229,199.913,341.862,224.004z M228.134,111.418l-121.93-47.414l121.93-47.414l121.93,47.414L228.134,111.418    z M362.263,144.004l9.871-16.453l9.871,16.453H362.263z" fill="#FFFFFF"/>
	</g>
</g>
<g>
</g>
<g>
</g>
<g>
</g>
<g>
</g>
<g>
</g>
<g>
</g>
<g>
</g>
<g>
</g>
<g>
</g>
<g>
</g>
<g>
</g>
<g>
</g>
<g>
</g>
<g>
</g>
<g>
</g>
</svg>
