<svg id="Layer_1" data-name="Layer 1" xmlns="http://www.w3.org/2000/svg" viewBox="0 0 282 163"><path fill="#e91e63" d="M82,38.21v-5.8a4.54,4.54,0,0,0-9.08,0v22.3a4.52,4.52,0,0,0,4.53,4.52h0a4.53,4.53,0,0,0,4.51-4V38.69A3.87,3.87,0,0,1,82,38.21Z" transform="translate(0.12)"/><path fill="#e91e63" d="M36.51,4.54V27A4.54,4.54,0,0,0,41,31.5h0A4.55,4.55,0,0,0,45.59,27h0V4.54A4.56,4.56,0,0,0,41,0h0A4.54,4.54,0,0,0,36.51,4.54Z" transform="translate(0.12)"/><path fill="#e91e63" d="M92.87,55a4.24,4.24,0,1,0,0-6,4.26,4.26,0,0,0,0,6Z" transform="translate(0.12)"/><path fill="#e91e63" d="M38.22,37.51a4.26,4.26,0,1,0,6,0h0A4.28,4.28,0,0,0,38.22,37.51Z" transform="translate(0.12)"/><ellipse fill="#e91e63" cx="77.78" cy="18.99" rx="4.25" ry="4.24"/><path fill="#e91e63" d="M-.12,163.05l282.48.48.18-102.6a4.54,4.54,0,0,0-9.07-.44,3.08,3.08,0,0,0,0,.43l-.15,20.41a4.54,4.54,0,0,1-9.07.41,3.08,3.08,0,0,1,0-.43l0-18.65a4.54,4.54,0,0,0-4.53-4.55h0a4.53,4.53,0,0,0-4.54,4.52h0v6h-.07v2.75a4.54,4.54,0,0,1-9.07,0V64.87a4.54,4.54,0,0,0-4.5-4.07h0A4.53,4.53,0,0,0,237,65.31h0v3.29h0l0,22.9a4.55,4.55,0,1,1-9.09,0V48.35a4.54,4.54,0,0,0-4.53-4.55h0a4.52,4.52,0,0,0-4.54,4.47l0,23.06a4.54,4.54,0,0,1-9.07,0V68.57h-.05V65.28a4.53,4.53,0,0,0-4.53-4.54h0a4.53,4.53,0,0,0-4.54,4.46l0,13.07a4.54,4.54,0,0,1-9.07,0l.05-27.6a4.54,4.54,0,0,0-9,.68l-.26,29.24a4.55,4.55,0,0,1-9.09,0l0-12.66h0v-6a4.54,4.54,0,1,0-9.08,0v6h-.06v2.75a4.54,4.54,0,0,1-9.08,0V64.1a4.54,4.54,0,0,0-4.5-4.07h0A4.53,4.53,0,0,0,146,64.56h0l0,26.19a4.54,4.54,0,1,1-9.07.41,3.08,3.08,0,0,1,0-.43V47.59A4.55,4.55,0,0,0,132.3,43h0a4.53,4.53,0,0,0-4.53,4.47l0,23a4.54,4.54,0,1,1-9.08,0v-6A4.54,4.54,0,0,0,114.12,60h0a4.54,4.54,0,0,0-4.54,4.47l0,13.08a4.54,4.54,0,0,1-9,1l0-27.92A4.53,4.53,0,0,0,96.09,46h0a4.6,4.6,0,0,0-1.37.21,4.55,4.55,0,0,0-3.23,4.33L91.27,71a4.54,4.54,0,1,1-9.07.41,2.94,2.94,0,0,1,0-.42l0-18.65a4.54,4.54,0,0,0-4.53-4.55h0a4.52,4.52,0,0,0-4.54,4.52h0L73.07,61A4.54,4.54,0,0,1,64,61V54.5a4.53,4.53,0,0,0-4.5-4.06h0A4.53,4.53,0,0,0,55,55h0v3.29h0l0,22.89a4.54,4.54,0,0,1-9.08,0V38a4.56,4.56,0,0,0-4.53-4.55h0a4.53,4.53,0,0,0-4.54,4.48l0,23.07a4.54,4.54,0,0,1-9.07,0V58.2h-.05V54.91a4.54,4.54,0,0,0-9.07-.07l0,13.07a4.54,4.54,0,0,1-9.07,0l.05-27.6A4.53,4.53,0,0,0,.5,41Z" transform="translate(0.12)"/><path fill="#e91e63" d="M145.94,67.14a4.47,4.47,0,0,0,8.92.47V51.29a3.69,3.69,0,0,1,0-.47V45.07a4.48,4.48,0,0,0-9-.42,2.94,2.94,0,0,0,0,.42Z" transform="translate(0.12)"/><path fill="#e91e63" d="M127.53,36.15a4.53,4.53,0,0,0,4.53,4.53h0a4.54,4.54,0,0,0,4.55-4.53V13.73a4.54,4.54,0,0,0-4.55-4.54h0a4.54,4.54,0,0,0-4.54,4.54h0Z" transform="translate(0.12)"/><path fill="#e91e63" d="M165.5,66a4.24,4.24,0,1,0,0-6,4.26,4.26,0,0,0,0,6Z" transform="translate(0.12)"/><path fill="#e91e63" d="M129.21,47.79a4.24,4.24,0,1,0,6,0,4.24,4.24,0,0,0-6,0Z" transform="translate(0.12)"/><path fill="#e91e63" d="M147.47,33.71a4.26,4.26,0,1,0,0-6h0A4.26,4.26,0,0,0,147.47,33.71Z" transform="translate(0.12)"/></svg>