<?xml version="1.0" encoding="utf-8"?>
<!-- Generator: Adobe Illustrator 22.1.0, SVG Export Plug-In . SVG Version: 6.00 Build 0)  -->
<svg version="1.1" id="Layer_1" xmlns="http://www.w3.org/2000/svg" xmlns:xlink="http://www.w3.org/1999/xlink" x="0px" y="0px"
	 viewBox="0 0 15 15" style="enable-background:new 0 0 15 15;" xml:space="preserve">
<path d="M6.4,4.3c0-0.6,0.5-1.1,1.1-1.1s1.1,0.5,1.1,1.1S8.1,5.4,7.5,5.4S6.4,4.9,6.4,4.3z M10.7,8.6c0.6,0,1.1-0.5,1.1-1.1
	s-0.5-1.1-1.1-1.1S9.6,6.9,9.6,7.5S10.1,8.6,10.7,8.6z M7.5,8.6c0.6,0,1.1-0.5,1.1-1.1S8.1,6.4,7.5,6.4S6.4,6.9,6.4,7.5
	S6.9,8.6,7.5,8.6z M4.3,8.6c0.6,0,1.1-0.5,1.1-1.1S4.9,6.4,4.3,6.4c-0.6,0-1.1,0.5-1.1,1.1S3.7,8.6,4.3,8.6z M4.3,11.7
	c0.6,0,1.1-0.5,1.1-1.1c0-0.6-0.5-1.1-1.1-1.1c-0.6,0-1.1,0.5-1.1,1.1S3.7,11.7,4.3,11.7z M4.3,14.9c0.6,0,1.1-0.5,1.1-1.1
	s-0.5-1.1-1.1-1.1c-0.6,0-1.1,0.5-1.1,1.1S3.7,14.9,4.3,14.9z M7.5,11.7c0.6,0,1.1-0.5,1.1-1.1c0-0.6-0.5-1.1-1.1-1.1
	s-1.1,0.5-1.1,1.1S6.9,11.7,7.5,11.7z M4.3,2.2c0.6,0,1.1-0.5,1.1-1.1c0-0.6-0.5-1.1-1.1-1.1c-0.6,0-1.1,0.5-1.1,1.1
	C3.3,1.7,3.7,2.2,4.3,2.2z M4.3,5.4c0.6,0,1.1-0.5,1.1-1.1S4.9,3.3,4.3,3.3c-0.6,0-1.1,0.5-1.1,1.1S3.7,5.4,4.3,5.4z"/>
</svg>
