<?xml version="1.0" encoding="utf-8"?>
<!-- Generator: Adobe Illustrator 15.0.0, SVG Export Plug-In . SVG Version: 6.00 Build 0)  -->
<!DOCTYPE svg PUBLIC "-//W3C//DTD SVG 1.1//EN" "http://www.w3.org/Graphics/SVG/1.1/DTD/svg11.dtd">
<svg version="1.1" id="Layer_1" xmlns="http://www.w3.org/2000/svg" xmlns:xlink="http://www.w3.org/1999/xlink" x="0px" y="0px"
	 width="80.5px" height="80.5px" viewBox="0 0 80.5 80.5" enable-background="new 0 0 80.5 80.5" xml:space="preserve">
<g display="none">
	<g display="inline">
		<path fill="none" stroke="#FFFFFF" stroke-miterlimit="10" d="M11.193,0.005C5.027,0.005,0.031,5,0.031,11.167
			c0,6.161,4.996,11.155,11.162,11.155c6.162,0,11.163-4.995,11.163-11.155C22.356,5,17.355,0.005,11.193,0.005z M11.193,20.463
			c-5.135,0-9.303-4.161-9.303-9.295c0-5.141,4.168-9.302,9.303-9.302s9.298,4.161,9.298,9.302
			C20.492,16.302,16.329,20.463,11.193,20.463z"/>
	</g>
</g>
<polyline fill="#FFFFFF" points="0,15.063 0,0 15.063,0 "/>
</svg>
