<?xml version="1.0" encoding="utf-8"?>
<!-- Generator: Adobe Illustrator 15.0.0, SVG Export Plug-In . SVG Version: 6.00 Build 0)  -->
<!DOCTYPE svg PUBLIC "-//W3C//DTD SVG 1.1//EN" "http://www.w3.org/Graphics/SVG/1.1/DTD/svg11.dtd">
<svg version="1.1" id="Layer_1" xmlns="http://www.w3.org/2000/svg" xmlns:xlink="http://www.w3.org/1999/xlink" x="0px" y="0px"
	 width="15px" height="15px" viewBox="0 0 15 15" enable-background="new 0 0 15 15" xml:space="preserve">
<path d="M8.559,10.675c0,0.585-0.474,1.06-1.059,1.06s-1.058-0.475-1.058-1.06S6.915,9.617,7.5,9.617S8.559,10.09,8.559,10.675z
	 M4.325,6.442c-0.585,0-1.059,0.473-1.059,1.058S3.74,8.559,4.325,8.559S5.384,8.085,5.384,7.5S4.91,6.442,4.325,6.442z M7.5,6.442
	c-0.585,0-1.058,0.473-1.058,1.058S6.915,8.559,7.5,8.559S8.559,8.085,8.559,7.5S8.085,6.442,7.5,6.442z M10.675,6.442
	c-0.585,0-1.059,0.473-1.059,1.058s0.474,1.059,1.059,1.059c0.587,0,1.06-0.474,1.06-1.059S11.262,6.442,10.675,6.442z
	 M10.675,3.268c-0.585,0-1.059,0.473-1.059,1.058s0.474,1.059,1.059,1.059c0.587,0,1.06-0.474,1.06-1.059S11.262,3.268,10.675,3.268
	z M10.675,0.093c-0.585,0-1.059,0.473-1.059,1.058S10.09,2.21,10.675,2.21c0.587,0,1.06-0.474,1.06-1.059S11.262,0.093,10.675,0.093
	z M7.5,3.268c-0.585,0-1.058,0.473-1.058,1.058S6.915,5.384,7.5,5.384S8.559,4.91,8.559,4.325S8.085,3.268,7.5,3.268z
	 M10.675,12.792c-0.585,0-1.059,0.474-1.059,1.058c0,0.586,0.474,1.059,1.059,1.059c0.587,0,1.06-0.473,1.06-1.059
	C11.732,13.266,11.262,12.792,10.675,12.792z M10.675,9.617c-0.585,0-1.059,0.473-1.059,1.058s0.474,1.06,1.059,1.06
	c0.587,0,1.06-0.475,1.06-1.06S11.262,9.617,10.675,9.617z"/>
</svg>
