<?xml version="1.0" encoding="iso-8859-1"?>
<!-- Generator: Adobe Illustrator 19.0.0, SVG Export Plug-In . SVG Version: 6.00 Build 0)  -->
<svg version="1.1" id="Capa_1" xmlns="http://www.w3.org/2000/svg" xmlns:xlink="http://www.w3.org/1999/xlink" x="0px" y="0px"
	 viewBox="0 0 480 480" style="enable-background:new 0 0 480 480;" xml:space="preserve">
<path style="fill:#E6E6E6;" d="M120,472H96c-13.255,0-24-10.745-24-24l0,0V32C72,18.745,82.745,8,96,8h336c13.255,0,24,10.745,24,24
	v416c0,13.255-10.745,24-24,24l0,0H120z"/>
<path style="fill:#0071BC;" d="M96,8h336c13.255,0,24,10.745,24,24v40l0,0H72l0,0V32C72,18.745,82.745,8,96,8z"/>
<path style="fill:#29ABE2;" d="M24,184h224v144H24V184z"/>
<path style="fill:#FCBF29;" d="M320,256v-24.632c-30.611-17.673-41.099-56.815-23.426-87.426
	c17.673-30.611,56.815-41.099,87.426-23.426s41.099,56.815,23.426,87.426c-5.617,9.729-13.696,17.808-23.426,23.426V256H320z"/>
<path style="fill:#0071BC;" d="M320,256h64v32h-64V256z"/>
<path style="opacity:0.5;fill:#F28D01;enable-background:new    ;" d="M328,216c35.315,0.03,63.968-28.574,63.998-63.89
	c0.009-11.123-2.882-22.055-8.39-31.718c30.707,17.407,41.489,56.411,24.082,87.118c-5.626,9.924-13.806,18.162-23.69,23.858V256
	h-64v-24.632c-9.804-5.699-17.931-13.884-23.56-23.728C306.054,213.123,316.932,216.004,328,216z"/>
<path style="fill:#DA4836;" d="M352,432l64-32l-64-32H24v64H352z"/>
<path style="fill:#F8CF26;" d="M72,368h32v64H72V368z"/>
<path style="fill:#FBB03B;" d="M24,368h48v64H24V368z"/>
<path style="fill:#8C6239;" d="M352,368l64,32l-64,32V368z"/>
<path style="fill:#F7931E;" d="M104,400h248v32H104V400z"/>
<path d="M96,32h16v16H96V32z"/>
<path d="M128,32h16v16h-16V32z"/>
<path d="M160,32h16v16h-16V32z"/>
<path d="M24,440h40v8c0,17.673,14.327,32,32,32h336c17.673,0,32-14.327,32-32V32c0-17.673-14.327-32-32-32H96
	C78.327,0,64,14.327,64,32v144H24c-4.418,0-8,3.582-8,8v144c0,4.418,3.582,8,8,8h40v24H24c-4.418,0-8,3.582-8,8v64
	C16,436.418,19.582,440,24,440z M80,376h16v48H80V376z M344,376v16H112v-16H344z M112,408h232v16H112V408z M360,419.056v-38.112
	L398.112,400L360,419.056z M96,16h336c8.837,0,16,7.163,16,16v32H80V32C80,23.163,87.163,16,96,16z M32,192h208v128H32V192z
	 M248,336c4.418,0,8-3.582,8-8V184c0-4.418-3.582-8-8-8H80V80h368v368c0,8.837-7.163,16-16,16H96c-8.837,0-16-7.163-16-16v-8h272
	c1.238,0.014,2.462-0.26,3.576-0.8l64-32c3.954-1.971,5.562-6.774,3.591-10.729c-0.775-1.556-2.036-2.816-3.591-3.591l-64-32
	c-1.035-0.505-2.168-0.778-3.32-0.8c-0.088,0-0.168-0.064-0.256-0.064H80V336L248,336z M32,376h32v48H32V376z"/>
<path d="M99.2,225.6l-32,24c-3.535,2.651-4.251,7.665-1.6,11.2c0.455,0.606,0.994,1.145,1.6,1.6l32,24l9.6-12.8L85.336,256
	l23.464-17.6L99.2,225.6z"/>
<path d="M172.8,225.6l-9.6,12.8l23.464,17.6L163.2,273.6l9.6,12.8l32-24c3.535-2.651,4.251-7.665,1.6-11.2
	c-0.455-0.606-0.994-1.145-1.6-1.6L172.8,225.6z"/>
<path d="M112.566,293.013l32.007-79.994l14.862,5.947l-32.007,79.994L112.566,293.013z"/>
<path d="M104,136h152v16H104V136z"/>
<path d="M136,104h120v16H136V104z"/>
<path d="M104,104h16v16h-16V104z"/>
<path d="M304,320h120v16H304V320z"/>
<path d="M272,320h16v16h-16V320z"/>
<path d="M312,235.8V248h-16v16h16v24c0,4.418,3.582,8,8,8h64c4.418,0,8-3.582,8-8v-24h16v-16h-16v-12.2
	c33.063-22.091,41.958-66.803,19.867-99.867S345.063,93.976,312,116.067s-41.958,66.803-19.867,99.867
	C297.387,223.796,304.138,230.547,312,235.8z M376,280h-48v-16h48V280z M352,120c30.928,0.047,55.962,25.157,55.915,56.085
	c-0.03,19.941-10.663,38.362-27.915,48.363c-2.473,1.428-3.997,4.065-4,6.92V248h-16v-44.688l21.656-21.656l-11.312-11.312
	L352,188.688l-18.344-18.344l-11.312,11.312L344,203.312V248h-16v-16.632c-0.003-2.855-1.527-5.492-4-6.92
	c-26.757-15.511-35.874-49.776-20.363-76.533C313.638,130.663,332.059,120.03,352,120z"/>
<g>
</g>
<g>
</g>
<g>
</g>
<g>
</g>
<g>
</g>
<g>
</g>
<g>
</g>
<g>
</g>
<g>
</g>
<g>
</g>
<g>
</g>
<g>
</g>
<g>
</g>
<g>
</g>
<g>
</g>
</svg>
