<?xml version="1.0" encoding="iso-8859-1"?>
<!-- Generator: Adobe Illustrator 19.0.0, SVG Export Plug-In . SVG Version: 6.00 Build 0)  -->
<svg version="1.1" id="Capa_1" xmlns="http://www.w3.org/2000/svg" xmlns:xlink="http://www.w3.org/1999/xlink" x="0px" y="0px"
	 viewBox="0 0 512 512" style="enable-background:new 0 0 512 512;" xml:space="preserve">
<polygon style="fill:#269BD8;" points="25.6,8.533 298.667,8.533 298.667,42.667 264.533,42.667 264.533,76.8 25.6,76.8 "/>
<polygon style="fill:#90D1F3;" points="264.533,435.2 25.6,435.2 25.6,76.8 264.533,76.8 264.533,213.333 298.667,213.333 
	298.667,298.667 264.533,298.667 "/>
<polygon style="fill:#269BD8;" points="25.6,503.467 298.667,503.467 298.667,469.333 264.533,469.333 264.533,435.2 25.6,435.2 "/>
<g>
	<rect x="264.533" y="298.667" style="fill:#FCBF29;" width="221.867" height="170.667"/>
	<rect x="264.533" y="42.667" style="fill:#FCBF29;" width="221.867" height="170.667"/>
</g>
<g style="opacity:0.5;enable-background:new    ;">
	<path style="fill:#F28D01;" d="M264.533,469.333V298.667H281.6c0,94.259,76.408,170.667,170.667,170.667H264.533z"/>
</g>
<g style="opacity:0.5;enable-background:new    ;">
	<path style="fill:#F28D01;" d="M264.533,213.333V42.667H281.6c0,94.259,76.408,170.667,170.667,170.667H264.533z"/>
</g>
<path style="fill:#FCBF29;" d="M196.267,264.533v-26.274c32.649-18.85,43.836-60.604,24.986-93.252S160.649,101.163,128,120.021
	s-43.836,60.604-24.986,93.252c5.99,10.377,14.609,18.995,24.986,24.986v26.274H196.267z"/>
<rect x="128" y="264.533" style="fill:#FFFFFF;" width="68.267" height="34.133"/>
<rect x="128" y="298.667" style="fill:#269BD8;" width="34.133" height="59.733"/>
<g style="opacity:0.5;enable-background:new    ;">
	<path style="fill:#F28D01;" d="M187.733,221.867c-37.666,0.034-68.233-30.481-68.267-68.147
		c-0.009-11.861,3.072-23.526,8.951-33.835c-32.751,18.569-44.254,60.169-25.685,92.928c5.999,10.59,14.729,19.371,25.267,25.446
		v26.274h68.267v-26.274c10.453-6.076,19.123-14.805,25.131-25.31C211.14,218.795,199.535,221.875,187.733,221.867z"/>
</g>
<rect x="162.133" y="298.667" style="fill:#90D1F3;" width="34.133" height="59.733"/>
<polygon style="fill:#FFFFFF;" points="128,358.4 196.267,358.4 162.133,401.067 "/>
<path d="M25.6,512h273.067c4.71,0,8.533-3.823,8.533-8.533v-25.6h179.2c4.71,0,8.533-3.823,8.533-8.533V298.667
	c0-4.71-3.823-8.533-8.533-8.533H307.2v-68.267h179.2c4.71,0,8.533-3.823,8.533-8.533V42.667c0-4.71-3.823-8.533-8.533-8.533H307.2
	v-25.6c0-4.71-3.823-8.533-8.533-8.533H25.6c-4.71,0-8.533,3.823-8.533,8.533v494.933C17.067,508.177,20.89,512,25.6,512z
	 M290.133,494.933h-256v-51.2H256v25.6c0,4.71,3.823,8.533,8.533,8.533h25.6V494.933z M477.867,460.8h-204.8V307.2h204.8V460.8z
	 M290.133,290.133h-25.6c-4.71,0-8.533,3.823-8.533,8.533v128H34.133V85.333H256v128c0,4.71,3.823,8.533,8.533,8.533h25.6V290.133z
	 M477.867,204.8h-204.8V51.2h204.8V204.8z M290.133,17.067v17.067h-25.6c-4.71,0-8.533,3.823-8.533,8.533v25.6H34.133v-51.2H290.133
	z"/>
<rect x="170.667" y="34.133" width="17.067" height="17.067"/>
<rect x="136.533" y="34.133" width="17.067" height="17.067"/>
<path d="M162.133,102.4c-42.394-0.017-76.774,34.33-76.791,76.723c-0.009,25.651,12.791,49.613,34.125,63.863V358.4
	c0,1.937,0.657,3.823,1.869,5.333l34.133,42.667c2.944,3.678,8.311,4.275,11.998,1.331c0.495-0.393,0.939-0.845,1.331-1.331
	l34.133-42.667c1.212-1.51,1.869-3.396,1.869-5.333V242.987c35.251-23.543,44.74-71.211,21.197-106.462
	C211.746,115.191,187.785,102.391,162.133,102.4z M187.733,273.067v17.067h-51.2v-17.067H187.733z M170.667,349.867V307.2h17.067
	v42.667H170.667z M136.533,307.2H153.6v42.667h-17.067V307.2z M162.133,387.413l-16.384-20.48h32.768L162.133,387.413z M192,230.886
	c-2.637,1.519-4.267,4.335-4.267,7.381V256h-17.067v-47.667l23.1-23.1L181.7,173.167l-19.567,19.567l-19.567-19.567L130.5,185.233
	l23.1,23.1V256h-17.067v-17.741c0-3.046-1.63-5.862-4.267-7.381c-28.57-16.495-38.357-53.026-21.862-81.596
	S163.43,110.925,192,127.42s38.357,53.026,21.862,81.596c-5.239,9.079-12.783,16.623-21.862,21.862V230.886z"/>
<path d="M336.213,143.36l10.24-13.653l-25.028-18.773l25.028-18.773l-10.24-13.653l-34.133,25.6
	c-3.772,2.825-4.531,8.175-1.707,11.947c0.486,0.649,1.058,1.22,1.707,1.707L336.213,143.36z"/>
<path d="M414.72,143.36l34.133-25.6c3.772-2.825,4.531-8.175,1.707-11.947c-0.486-0.649-1.058-1.22-1.707-1.707l-34.133-25.6
	L404.48,92.16l25.028,18.773l-25.028,18.773L414.72,143.36z"/>
<rect x="329.53" y="102.391" transform="matrix(-0.3715 0.9284 -0.9284 -0.3715 617.9608 -196.4721)" width="91.901" height="17.066"/>
<rect x="153.6" y="460.8" width="17.067" height="17.067"/>
<rect x="298.667" y="170.667" width="17.067" height="17.067"/>
<rect x="332.8" y="170.667" width="17.067" height="17.067"/>
<rect x="366.933" y="170.667" width="17.067" height="17.067"/>
<rect x="401.067" y="170.667" width="17.067" height="17.067"/>
<rect x="435.2" y="170.667" width="17.067" height="17.067"/>
<rect x="358.4" y="324.267" width="17.067" height="17.067"/>
<rect x="392.533" y="324.267" width="68.267" height="17.067"/>
<rect x="358.4" y="358.4" width="102.4" height="17.067"/>
<rect x="290.133" y="392.533" width="170.667" height="17.067"/>
<rect x="290.133" y="426.667" width="136.533" height="17.067"/>
<path d="M298.667,375.467H332.8c4.71,0,8.533-3.823,8.533-8.533V332.8c0-4.71-3.823-8.533-8.533-8.533h-34.133
	c-4.71,0-8.533,3.823-8.533,8.533v34.133C290.133,371.644,293.956,375.467,298.667,375.467z M307.2,341.333h17.067V358.4H307.2
	V341.333z"/>
<g>
</g>
<g>
</g>
<g>
</g>
<g>
</g>
<g>
</g>
<g>
</g>
<g>
</g>
<g>
</g>
<g>
</g>
<g>
</g>
<g>
</g>
<g>
</g>
<g>
</g>
<g>
</g>
<g>
</g>
</svg>
