<?xml version="1.0" encoding="iso-8859-1"?>
<!-- Generator: Adobe Illustrator 19.0.0, SVG Export Plug-In . SVG Version: 6.00 Build 0)  -->
<svg version="1.1" id="Capa_1" xmlns="http://www.w3.org/2000/svg" xmlns:xlink="http://www.w3.org/1999/xlink" x="0px" y="0px"
	 viewBox="0 0 512 512" style="enable-background:new 0 0 512 512;" xml:space="preserve">
<polygon style="fill:#7ACBFA;" points="488,448 336.024,448 316,456 196,456 173.96,448 24,448 24,168 488,168 "/>
<rect x="56" y="200" style="fill:#D1E5F1;" width="400" height="216"/>
<path style="fill:#FB7647;" d="M496,216H112c-4.416,0-8-3.584-8-8V32c0-4.416,3.584-8,8-8h384c4.416,0,8,3.584,8,8v176
	C504,212.416,500.416,216,496,216z"/>
<path style="fill:#F1D9D0;" d="M402.56,184H141.44c-3.008,0-5.44-2.384-5.44-5.336V61.336c0-2.952,2.432-5.336,5.44-5.336h261.12
	c3.008,0,5.44,2.384,5.44,5.336v117.336C408,181.616,405.568,184,402.56,184z"/>
<circle style="fill:#FDCD3B;" cx="312" cy="216" r="96"/>
<path d="M496,224h-72v-16h72V32H112v176h88v16h-88c-8.824,0-16-7.176-16-16V32c0-8.824,7.176-16,16-16h384c8.824,0,16,7.176,16,16
	v176C512,216.824,504.824,224,496,224z"/>
<path d="M112,352H88c-4.416,0-8-3.584-8-8v-24h16v16h16V352z"/>
<path d="M184,280h-16v-16h-16v-16h24c4.416,0,8,3.584,8,8V280z"/>
<rect x="103.71" y="292.007" transform="matrix(-0.7071 0.7071 -0.7071 -0.7071 437.4568 418.8123)" width="56.559" height="16"/>
<path d="M309.656,333.656l-11.312-11.312L308.688,312l-10.344-10.344l11.312-11.312l16,16c3.128,3.128,3.128,8.184,0,11.312
	L309.656,333.656z"/>
<path d="M314.344,141.656l-16-16c-3.128-3.128-3.128-8.184,0-11.312l16-16l11.312,11.312L315.312,120l10.344,10.344L314.344,141.656
	z"/>
<path d="M284.696,316.376c-35.704-9.688-63.76-37.92-73.232-73.68C209.168,234.04,208,225.056,208,216
	c0-8.288,0.984-16.544,2.912-24.544c8.904-36.792,37.136-65.84,73.664-75.8l4.208,15.44c-30.912,8.424-54.792,33-62.32,64.128
	C224.832,201.992,224,208.976,224,216c0,7.672,0.984,15.272,2.928,22.6c8.008,30.256,31.752,54.144,61.952,62.336L284.696,316.376z"
	/>
<path d="M338.08,316.696l-4-15.496c31.248-8.072,55.504-32.536,63.312-63.848C399.12,230.408,400,223.224,400,216
	c0-6.784-0.776-13.536-2.296-20.072c-7.4-31.72-31.552-56.624-63.048-64.984l4.112-15.464c37.224,9.88,65.776,39.32,74.52,76.816
	C415.088,200.016,416,208,416,216c0,8.52-1.032,17.008-3.08,25.224C403.696,278.24,375.016,307.16,338.08,316.696z"/>
<path d="M312,240c-2.12,0-4.152-0.84-5.656-2.344l-24-24l11.312-11.312l17.808,17.808l34.392-41.272l12.288,10.24l-40,48
	c-1.44,1.728-3.536,2.768-5.784,2.872C312.24,240,312.12,240,312,240z"/>
<circle style="fill:#F2E9CE;" cx="456" cy="120" r="16"/>
<path d="M456,144c-13.232,0-24-10.768-24-24s10.768-24,24-24s24,10.768,24,24S469.232,144,456,144z M456,112c-4.408,0-8,3.592-8,8
	s3.592,8,8,8s8-3.592,8-8S460.408,112,456,112z"/>
<path d="M200,192h-64c-4.416,0-8-3.584-8-8V56c0-4.416,3.584-8,8-8h272c4.416,0,8,3.584,8,8v88h-16V64H144v112h56V192z"/>
<polygon style="fill:#21A9F6;" points="493.216,488 18.784,488 8,474.504 8,448 173.96,448 196.2,456 315.136,456 336.024,448 
	504,448 504,478 "/>
<rect x="240" y="408" width="32" height="16"/>
<path d="M504,440h-8V240h-16v200H336.024c-0.976,0-1.952,0.176-2.856,0.528L313.656,448H197.6l-20.936-7.528
	C175.8,440.16,174.88,440,173.96,440H32V176h48v-16H24c-4.416,0-8,3.584-8,8v272H8c-4.416,0-8,3.584-8,8v26.504
	c0,1.816,0.616,3.576,1.752,4.992l10.784,13.496c1.512,1.904,3.808,3.008,6.248,3.008h474.44c2.016,0,3.96-0.76,5.44-2.136
	l10.784-10c1.624-1.52,2.552-3.64,2.552-5.864v-30C512,443.584,508.416,440,504,440z M496,474.504L490.08,480H22.632L16,471.704V456
	h16h16v8h16v-8h108.56l20.936,7.528C194.36,463.84,195.28,464,196.2,464h118.928c0.976,0,1.952-0.176,2.856-0.528l19.52-7.472H416v8
	h16v-8h16v8h16v-8h32V474.504z"/>
<path d="M224,424H56c-4.416,0-8-3.584-8-8V200c0-4.416,3.584-8,8-8h24v16H64v200h160V424z"/>
<path d="M456,424H288v-16h160V240h16v176C464,420.416,460.416,424,456,424z"/>
<g>
</g>
<g>
</g>
<g>
</g>
<g>
</g>
<g>
</g>
<g>
</g>
<g>
</g>
<g>
</g>
<g>
</g>
<g>
</g>
<g>
</g>
<g>
</g>
<g>
</g>
<g>
</g>
<g>
</g>
</svg>
